<svg width="49" height="35" viewBox="0 0 49 35" fill="none" xmlns="http://www.w3.org/2000/svg">
<path fill-rule="evenodd" clip-rule="evenodd" d="M14 31.5C14 31.0359 14.1844 30.5907 14.5126 30.2626C14.8408 29.9344 15.2859 29.75 15.75 29.75H47.25C47.7141 29.75 48.1592 29.9344 48.4874 30.2626C48.8156 30.5907 49 31.0359 49 31.5C49 31.9641 48.8156 32.4092 48.4874 32.7374C48.1592 33.0656 47.7141 33.25 47.25 33.25H15.75C15.2859 33.25 14.8408 33.0656 14.5126 32.7374C14.1844 32.4092 14 31.9641 14 31.5ZM14 17.5C14 17.0359 14.1844 16.5908 14.5126 16.2626C14.8408 15.9344 15.2859 15.75 15.75 15.75H47.25C47.7141 15.75 48.1592 15.9344 48.4874 16.2626C48.8156 16.5908 49 17.0359 49 17.5C49 17.9641 48.8156 18.4092 48.4874 18.7374C48.1592 19.0656 47.7141 19.25 47.25 19.25H15.75C15.2859 19.25 14.8408 19.0656 14.5126 18.7374C14.1844 18.4092 14 17.9641 14 17.5ZM14 3.5C14 3.03587 14.1844 2.59075 14.5126 2.26256C14.8408 1.93437 15.2859 1.75 15.75 1.75H47.25C47.7141 1.75 48.1592 1.93437 48.4874 2.26256C48.8156 2.59075 49 3.03587 49 3.5C49 3.96413 48.8156 4.40925 48.4874 4.73744C48.1592 5.06563 47.7141 5.25 47.25 5.25H15.75C15.2859 5.25 14.8408 5.06563 14.5126 4.73744C14.1844 4.40925 14 3.96413 14 3.5ZM3.5 7C4.42826 7 5.3185 6.63125 5.97487 5.97487C6.63125 5.3185 7 4.42826 7 3.5C7 2.57174 6.63125 1.6815 5.97487 1.02513C5.3185 0.368749 4.42826 0 3.5 0C2.57174 0 1.6815 0.368749 1.02513 1.02513C0.368749 1.6815 0 2.57174 0 3.5C0 4.42826 0.368749 5.3185 1.02513 5.97487C1.6815 6.63125 2.57174 7 3.5 7ZM3.5 21C4.42826 21 5.3185 20.6313 5.97487 19.9749C6.63125 19.3185 7 18.4283 7 17.5C7 16.5717 6.63125 15.6815 5.97487 15.0251C5.3185 14.3687 4.42826 14 3.5 14C2.57174 14 1.6815 14.3687 1.02513 15.0251C0.368749 15.6815 0 16.5717 0 17.5C0 18.4283 0.368749 19.3185 1.02513 19.9749C1.6815 20.6313 2.57174 21 3.5 21ZM3.5 35C4.42826 35 5.3185 34.6312 5.97487 33.9749C6.63125 33.3185 7 32.4283 7 31.5C7 30.5717 6.63125 29.6815 5.97487 29.0251C5.3185 28.3687 4.42826 28 3.5 28C2.57174 28 1.6815 28.3687 1.02513 29.0251C0.368749 29.6815 0 30.5717 0 31.5C0 32.4283 0.368749 33.3185 1.02513 33.9749C1.6815 34.6312 2.57174 35 3.5 35Z" fill="#272727"/>
</svg>
