<svg width="45" height="34" viewBox="0 0 45 34" fill="none" xmlns="http://www.w3.org/2000/svg">
<path d="M40.7812 2.83333C41.1542 2.83333 41.5119 2.98259 41.7756 3.24827C42.0393 3.51394 42.1875 3.87428 42.1875 4.25V29.75C42.1875 30.1257 42.0393 30.4861 41.7756 30.7517C41.5119 31.0174 41.1542 31.1667 40.7812 31.1667H4.21875C3.84579 31.1667 3.4881 31.0174 3.22438 30.7517C2.96066 30.4861 2.8125 30.1257 2.8125 29.75V4.25C2.8125 3.87428 2.96066 3.51394 3.22438 3.24827C3.4881 2.98259 3.84579 2.83333 4.21875 2.83333H40.7812ZM4.21875 0C3.09987 0 2.02681 0.447767 1.23564 1.2448C0.444474 2.04183 0 3.12283 0 4.25L0 29.75C0 30.8772 0.444474 31.9582 1.23564 32.7552C2.02681 33.5522 3.09987 34 4.21875 34H40.7812C41.9001 34 42.9732 33.5522 43.7644 32.7552C44.5555 31.9582 45 30.8772 45 29.75V4.25C45 3.12283 44.5555 2.04183 43.7644 1.2448C42.9732 0.447767 41.9001 0 40.7812 0H4.21875Z" fill="#9C9C9C"/>
<path d="M6.5625 18.7188C6.5625 18.2961 6.73041 17.8907 7.0293 17.5918C7.32818 17.2929 7.73356 17.125 8.15625 17.125H36.8438C37.2664 17.125 37.6718 17.2929 37.9707 17.5918C38.2696 17.8907 38.4375 18.2961 38.4375 18.7188C38.4375 19.1414 38.2696 19.5468 37.9707 19.8457C37.6718 20.1446 37.2664 20.3125 36.8438 20.3125H8.15625C7.73356 20.3125 7.32818 20.1446 7.0293 19.8457C6.73041 19.5468 6.5625 19.1414 6.5625 18.7188ZM6.5625 25.0938C6.5625 24.6711 6.73041 24.2657 7.0293 23.9668C7.32818 23.6679 7.73356 23.5 8.15625 23.5H27.2812C27.7039 23.5 28.1093 23.6679 28.4082 23.9668C28.7071 24.2657 28.875 24.6711 28.875 25.0938C28.875 25.5164 28.7071 25.9218 28.4082 26.2207C28.1093 26.5196 27.7039 26.6875 27.2812 26.6875H8.15625C7.73356 26.6875 7.32818 26.5196 7.0293 26.2207C6.73041 25.9218 6.5625 25.5164 6.5625 25.0938ZM6.5625 9.15625C6.5625 8.73356 6.73041 8.32818 7.0293 8.0293C7.32818 7.73041 7.73356 7.5625 8.15625 7.5625H36.8438C37.2664 7.5625 37.6718 7.73041 37.9707 8.0293C38.2696 8.32818 38.4375 8.73356 38.4375 9.15625V12.3438C38.4375 12.7664 38.2696 13.1718 37.9707 13.4707C37.6718 13.7696 37.2664 13.9375 36.8438 13.9375H8.15625C7.73356 13.9375 7.32818 13.7696 7.0293 13.4707C6.73041 13.1718 6.5625 12.7664 6.5625 12.3438V9.15625Z" fill="#9C9C9C"/>
</svg>
